<?xml version="1.0" encoding="utf-8"?>
<!-- Generator: Adobe Illustrator 19.0.0, SVG Export Plug-In . SVG Version: 6.00 Build 0)  -->
<svg version="1.1" id="Layer_1" xmlns="http://www.w3.org/2000/svg" xmlns:xlink="http://www.w3.org/1999/xlink" x="0px" y="0px"
	 viewBox="126 -77.8 947.8 947.8" style="enable-background:new 126 -77.8 947.8 947.8;" xml:space="preserve">
<style type="text/css">
	.st0{fill:#0D0A0C;}
	.st1{fill:#6B3609;}
	.st2{fill:#FFFFFF;}
</style>
<g>
	<path class="st0" d="M196.4,350.6c1.4-95.4,35-185.2,103.4-261.4c50.3-56,111.9-94.7,184-116.4c48.7-14.7,98.4-20,149.1-15.8
		c65.6,5.4,126.6,25.2,182.4,60.5c81,51.3,137.3,122.3,168.2,213.1c17.3,50.8,23.4,103,19.3,156.5c-5.3,70.1-27.5,134.4-66.8,192.5
		c-48.1,71-112.4,121.8-192.6,152.3c-36.9,14.1-75.2,22.2-114.6,25c-41.2,2.9-81.9-0.1-122-9.9c-103.5-25.2-185-82.4-244.4-170.7
		c-27.8-41.3-46.4-86.6-57-135.3C199.6,413.5,196.8,385.6,196.4,350.6z M345.5,63.6c-1.2-0.7-1.8,0.3-2.4,0.9
		c-37.9,33.3-68.7,72.3-91.8,117.2c-1.9,3.7-1.2,5.1,2.3,7c26.5,14.3,52.9,28.8,79.3,43.2c17.6,9.7,35.2,19.4,52.9,29.1
		c1.5,0.8,3.4,1,1.7,3.8c-9,15.4-14,32.3-17.8,49.5c-8,36.3-7.8,72.7,1.2,108.9c11.4,46,34.1,85.6,69.2,117.4
		c61.5,55.7,133.6,74.9,214.7,58c40.9-8.5,76.9-27.6,107.6-55.9c49.4-45.4,75.5-101.8,78.1-168.8c1.5-37.9-5.6-74.2-22.7-108.3
		c-1.2-2.5-1-3.5,1.6-4.9c42.8-22.5,85.6-45.1,128.4-67.7c5.8-3.1,5.9-3,3-8.7c-23.5-46.6-54.9-87.2-94.7-121.1
		C787.4,4.6,707.7-26.7,617.6-31.1c-41.9-2.1-83.2,2.7-123.5,14.1C445.9-3.4,401.8,18.6,362,49.2C356.1,53.7,349.9,57.7,345.5,63.6
		L345.5,63.6z M601.9,744.7c19.9,1.5,41-1.4,62-4.3c18.3-2.6,36.3-7.5,54-13c20.6-6.4,40.5-14.6,59.7-24.3
		c21.6-10.9,41.9-24.1,61.3-38.6c15.6-11.6,29.9-24.6,43.5-38.5c15.3-15.7,29.1-32.7,41.5-50.8c9.8-14.5,19.1-29.2,26.5-45.1
		c7.4-15.7,14.4-31.6,19.9-48.2c4-12.1,8-24.2,11-36.6c3.1-12.8,4.8-26,6.7-39.1c2.3-15,2.5-30.1,3.4-45.1
		c0.7-11.8-1.2-23.5-1.5-35.3c-0.4-13.2-2.9-26.1-4.9-39c-2.5-16.2-7.2-32-12.1-47.7c-3.7-11.9-8.4-23.4-13.1-35c-1.3-3.3-3-3.6-6-2
		c-17.8,9.4-35.7,18.5-53.4,27.9c-21.6,11.4-43.1,22.9-64.7,34.2c-3.6,1.9-4.9,3.7-3.1,7.8c5.9,13.2,10,27.1,12.9,41.2
		c4.6,22.3,6.8,44.8,5.3,67.7c-1.3,20.4-5,40.1-10.8,59.5c-4.6,15.6-11,30.5-18.8,44.8c-7.1,13-14.9,25.5-24.3,36.8
		c-9,10.8-18.6,21.1-29.3,30.4c-14.2,12.3-29.2,23.4-45.8,32.4c-14,7.6-28.6,13.8-43.8,18.6c-20.6,6.5-41.4,10.6-62.9,11.4
		c-17.6,0.7-35.4,0.5-52.7-2.6c-18.2-3.2-36.2-8-53.5-15.1c-29.2-11.9-55.2-28.7-78-50.1c-14.6-13.7-27.5-29.1-38.3-46.2
		c-10.8-17.3-19.9-35.3-26.5-54.6c-10.8-31.9-14.4-64.8-12.3-98.3c0.7-10.9,2-21.8,4.6-32.5c3.1-12.7,6.2-25.4,10.9-37.7
		c1.3-3.5,5-7,3.5-10.5c-1.5-3.6-6.5-4.1-9.9-6.1c-20.9-11.6-41.8-23.2-62.8-34.7c-17.2-9.5-34.4-18.7-51.5-28.3
		c-4-2.3-5.3-0.7-6.5,2.6c-4.3,11.2-8.9,22.2-12.7,33.5c-6.2,18.2-10.8,36.9-14,55.9c-2.5,14.9-4.8,29.9-5.5,44.9
		c-1.5,30.4,0.2,60.8,5.8,90.9c5.6,30.1,14.3,59.3,26.8,87.4c14.7,33,33.8,63.4,56.7,91.3c17.6,21.4,37.6,40.4,59.4,57.4
		c17.1,13.3,35.3,25.1,54.4,35.6c32.8,18.1,67.5,30.9,104,38.9C544.3,742.4,572.1,745.8,601.9,744.7z"/>
	<path class="st1" d="M390.4,812.5c8.7,6.8,10.6,11.3,8.1,18.9c-2,6.2-6.6,10.1-13.2,10.3c-9.5,0.4-19,0.2-28.4,0.5
		c-3,0.1-3.6-1.2-3.5-3.8c0.1-16,0-32,0-47.9c0-2,0.1-3.6,2.8-3.5c9.3,0.3,18.6-0.6,27.9,0.6c6.3,0.8,11,4.8,12.3,10.1
		C397.7,803,395.4,808.7,390.4,812.5z M373.5,832.5c2.7,0,5.3,0.3,7.9-0.1c3.9-0.5,6.3-2.7,6.2-7s-2.4-6.4-6.5-6.7
		c-3.8-0.3-7.6,0-11.4-0.4c-4.1-0.4-5.3,1-5.2,5.1C364.7,832.7,364.4,832.7,373.5,832.5z M372.7,808.9c0,0.1,0,0.1,0,0.2
		c2.8-0.2,5.7-0.1,8.4-0.7c3-0.7,4.8-2.8,4.6-6.2c-0.2-3.3-2-5.3-5.3-5.5c-4.5-0.3-8.9-0.2-13.4-0.2c-1,0-2.2,0.1-2.2,1.4
		c-0.1,3.4-1.2,7.3,0.5,10.2c1.2,2.2,4.6,0.5,7,0.8C372.3,808.9,372.5,808.9,372.7,808.9z"/>
	<path class="st1" d="M696.1,818.1c8.2,6.3,11.9,15.3,17.3,23.1c-8.9,2.8-12.8,1.5-17.5-5.7c-2.4-3.6-4.8-7.2-7.2-10.8
		c-1.1-1.7-2.4-3.2-4.2-4.2c-2.4-1.4-5.3-2.1-7.7-1.1c-2.3,1-1.1,3.8-1.2,5.9c-0.2,3.8,0.1,7.7-0.1,11.5c-0.1,1.7,1,4.3-1.1,4.9
		c-3,0.9-6.3,0.8-9.3-0.1c-1.2-0.4-0.7-2.1-0.7-3.2c0-15.8-0.1-31.6,0-47.5c0-1.8-0.6-4.2,2.7-4.1c9.2,0.3,18.3-0.6,27.5,0.4
		c9.1,1,13.7,5.1,14.7,12.9c1.1,8-2.8,13.8-11.3,17C697.5,817.5,697,817.7,696.1,818.1z M684.5,810.3c2.3-0.1,4.6-0.3,6.9-0.4
		c4-0.2,6.1-2.4,6.2-6.3c0.1-4.2-2.2-6.6-6.3-6.8c-4.5-0.3-8.9-0.1-13.4-0.1c-1.3,0-2,0.3-2.4,1.8
		C673.4,807.4,675.5,810.3,684.5,810.3z"/>
	<path class="st1" d="M811.7,814.6c0-8,0-16,0-24c0-2.4,0.5-3.8,3.3-3.7c7,0.2,14-0.1,21,0.2c11.9,0.7,18.3,6.2,21,17.9
		c1.9,8.1,1.7,16.2-1.5,24c-3.2,7.6-8.8,12.1-17,12.6c-7.8,0.5-15.6,0.2-23.4,0.5c-2.9,0.1-3.3-1.3-3.2-3.6
		C811.7,830.6,811.7,822.6,811.7,814.6z M823.3,814.3C823.2,814.3,823.2,814.3,823.3,814.3c-0.1,2.7-0.1,5.3-0.1,8
		c0,11,0,11,11.2,10.3c6.6-0.4,10-3.4,11.2-9.8c0.4-2.3,0.7-4.6,0.7-6.9c0.3-15.6-3.8-19.6-19.2-19.3c-2.8,0-4.2,0.4-3.9,3.8
		C823.5,805,823.3,809.6,823.3,814.3z"/>
	<path class="st1" d="M500.2,815.8c0.1-16.6,7.8-27.1,20.3-29.1c10.3-1.6,20-0.2,26.8,8.2c7.8,9.8,8.1,21.3,4,32.7
		c-4.1,11.5-15.5,17.1-29.3,15.2c-11.5-1.6-20-10.2-21.3-21.8C500.3,818.9,500.2,816.7,500.2,815.8z M541.7,813.7
		c-0.1-1.3-0.1-3.1-0.4-4.9c-1.2-7.6-6.4-12.6-13.5-13c-7.9-0.4-13.7,3.9-15.5,11.8c-1.3,5.9-1.3,11.9,1.4,17.6
		c2.4,5.1,6.6,7.8,12.1,8.2c5.6,0.4,10-2,13.1-6.7C541.5,822.9,541.7,818.6,541.7,813.7z"/>
	<path class="st1" d="M621,812.6c11.8,0,11.8,0,11.8,11.9s-0.9,13-12.2,16.8c-9.5,3.2-19.2,2.7-27.5-2.1
		c-7.9-4.6-11.2-13.3-11.8-22.5c-1.3-21.6,15.5-35.2,36.5-29.6c6.5,1.7,10.2,6.3,13.3,11.6c1.3,2.2,1.1,3.7-2.2,4.4
		c-4.4,0.8-7.3,1.6-10.8-3.2c-5.9-8.2-20.9-4.1-24,6.1c-1.7,5.7-1.7,11.6,0.3,17.2c3.6,10.5,15.3,13.4,25.6,6.6
		c2.5-1.7,1.7-4.3,1.4-6.4c-0.3-2.4-2.6-1.2-4.1-1.4c-1-0.1-2,0-3,0c-5,0-7.2-3.2-5.4-7.9c0.6-1.5,1.6-1.5,2.8-1.5c1.7,0,3.3,0,5,0
		C618,812.6,619.5,812.6,621,812.6z"/>
	<path class="st1" d="M429.8,814.1c0-7.8,0.1-15.6,0-23.5c0-2.7,0.6-3.8,3.6-3.8c11.1,0.2,22.3,0.3,33.4,0c4.4-0.1,3.7,2.4,3.8,5.1
		c0.1,3.1-0.2,4.9-4.1,4.7c-7-0.4-14,0.1-21-0.2c-3.6-0.1-4.8,1.1-4.4,4.5c0.2,1.1,0.2,2.3,0,3.5c-0.4,3.2,0.7,4.4,4.1,4.2
		c6.6-0.3,13.3,0.2,20-0.2c3.8-0.2,3.5,1.9,3.4,4.3c-0.1,2.3,1,5.1-3.3,5c-6.8-0.3-13.6,0.1-20.5-0.1c-2.8-0.1-3.7,0.8-3.8,3.7
		c-0.3,11.3-0.4,11.3,11,11.3c5.5,0,11,0.2,16.5,0c4.9-0.2,2.8,3.4,3.2,5.5c0.4,2.3,0.3,4.1-3.1,4c-11.6-0.2-23.3-0.2-34.9,0
		c-3.2,0-4-1.1-3.9-4.1C429.9,830.1,429.8,822.1,429.8,814.1L429.8,814.1z"/>
	<path class="st1" d="M780.4,842.1c-4,1.3-6.1-1.2-6.9-5.3c-1.1-6-4.6-8.3-10.5-7.1c-1,0.2-2,0.2-3,0c-7.9-1.4-13.4,0.7-14.6,9.6
		c-0.3,2.4-9.7,4.1-11.8,2.5c-1.1-0.9-0.3-1.9,0-2.7c6.4-16.6,12.8-33.2,19.2-49.7c0.4-1,0.9-2,2.2-2.4c6-1.8,10.8,0.3,13.2,6.2
		c5.8,14.1,11.4,28.3,17,42.5C787.8,842.1,787.8,842.1,780.4,842.1z M759.7,800.5c-1.5,4-2.7,7-3.8,10.1c-3.9,10.9-3.9,10.8,8.1,9.7
		c2.4-0.2,2.8-0.7,1.9-3C763.8,812.1,762,806.8,759.7,800.5z"/>
	<path class="st1" d="M601.9,744.7c-29.7,1.1-57.6-2.2-85.1-8.3c-36.4-8-71.1-20.8-104-38.9c-19.1-10.5-37.3-22.2-54.4-35.6
		c-21.8-17-41.9-36-59.4-57.4c-22.9-27.9-42-58.2-56.7-91.3c-12.5-28-21.1-57.2-26.8-87.4c-5.6-30.1-7.2-60.4-5.8-90.9
		c0.7-15,3-30,5.5-44.9c3.2-19,7.8-37.7,14-55.9c3.9-11.3,8.5-22.3,12.7-33.5c1.2-3.3,2.5-4.9,6.5-2.6c17.1,9.6,34.3,18.8,51.5,28.3
		c20.9,11.5,41.8,23.2,62.8,34.7c3.4,1.9,8.4,2.4,9.9,6.1c1.4,3.4-2.2,7-3.5,10.5c-4.7,12.3-7.8,25-10.9,37.7
		c-2.6,10.6-3.9,21.6-4.6,32.5c-2.2,33.5,1.5,66.4,12.3,98.3c6.5,19.2,15.7,37.3,26.5,54.6c10.7,17.1,23.7,32.5,38.3,46.2
		c22.8,21.4,48.8,38.2,78,50.1c17.4,7.1,35.3,11.8,53.5,15.1c17.4,3.1,35.1,3.3,52.7,2.6c21.5-0.8,42.4-4.9,62.9-11.4
		c15.3-4.8,29.8-11,43.8-18.6c16.6-8.9,31.6-20,45.8-32.4c10.7-9.3,20.3-19.6,29.3-30.4c9.4-11.3,17.3-23.9,24.3-36.8
		c7.8-14.3,14.2-29.2,18.8-44.8c5.8-19.4,9.6-39.1,10.8-59.5c1.4-23-0.8-45.4-5.3-67.7c-2.9-14.2-7-28-12.9-41.2
		c-1.8-4.1-0.5-6,3.1-7.8c21.6-11.3,43.1-22.9,64.7-34.2c17.8-9.4,35.7-18.5,53.4-27.9c3.1-1.6,4.7-1.3,6,2
		c4.7,11.5,9.4,23.1,13.1,35c4.9,15.7,9.6,31.5,12.1,47.7c2,12.9,4.5,25.8,4.9,39c0.3,11.8,2.2,23.5,1.5,35.3
		c-0.9,15-1.1,30.1-3.4,45.1c-2,13.1-3.7,26.3-6.7,39.1c-2.9,12.4-7,24.5-11,36.6c-5.5,16.6-12.5,32.5-19.9,48.2
		c-7.4,15.8-16.7,30.6-26.5,45.1c-12.3,18.2-26.2,35.1-41.5,50.8c-13.5,13.9-27.9,26.9-43.5,38.5c-19.4,14.5-39.6,27.7-61.3,38.6
		c-19.2,9.7-39.2,17.8-59.7,24.3c-17.7,5.5-35.7,10.4-54,13C642.9,743.3,621.7,746.2,601.9,744.7z M613.8,643.7
		c8.5,0.2,17-0.1,25.4-0.8c3.1-0.2,4.4-0.9,4.4-4.3c0-3.7-1.7-4-4.6-4c-16.8,0.4-33.6,0.7-50.4,1.1c-1.1,0-2.3,0.3-3.4,0.6
		c-12.3,3.6-19.9,15.6-17.4,27.7c3.3,15.9,15.6,20.8,27.8,20.2c9.2-0.5,18.3-0.6,27.4-0.4c7.1,0.2,14.3,9,14.3,16.8
		c0,7.3-6.9,15.5-13.9,16c-6,0.5-11.9,0.8-17.9,0.9c-10.5,0.2-21,0.3-31.5,0.1c-3.8-0.1-5.5,1.2-5.5,5.1c0,4.1,2.5,4,5.3,3.9
		c15.5-0.4,30.9-0.9,46.4-0.9c6.1,0,11.4-1.7,16.3-5.1c8.6-6,12.1-17.1,8.8-28.5c-2.5-8.9-12.3-17.3-21.1-17.4
		c-10.3-0.1-20.6-0.5-30.9,0.4c-8.3,0.8-16.3-5.7-16.9-13.4c-0.8-9.7,4.9-16.2,14.3-17.3C598.5,643.6,606.1,644.1,613.8,643.7z
		 M845.5,482.1c-2.5,24.9,21.2,44.9,42,46c27.8,1.4,47.1-22,48.1-43c1.3-27.1-22-46.2-41.9-47.6
		C866.9,435.5,842.9,458.7,845.5,482.1z M684.6,711.8c-0.2,4.1,0.5,4.6,4.4,2.8c2.1-1,3.2-2.4,3.7-4.8c0.7-2.8,0.5-5.6,0.8-8.4
		c3.3-24.6,6.7-49.2,9.9-73.9c0.5-3.7,1.9-4.3,4.8-2.4c14.8,9.8,29.6,19.5,44.4,29.3c8.7,5.8,17.5,11.5,26.2,17.2
		c3.1,2,5.8,0.5,7.5-1.6c2.3-2.8-1.8-3-2.9-4.5c-0.8-1.1-2.4-1.7-3.6-2.6c-17.7-11.7-35.5-23.3-53.2-35.1
		c-7.9-5.3-16.1-9.9-23.7-15.6c-2.3-1.8-5-2.7-5.5,1.9c-0.9,7.9-2,15.8-3,23.6c-2,15.1-4,30.2-6,45.3
		C687.3,692.6,685.9,702.1,684.6,711.8z M838.5,610.2c-23.2-5.6-45.2-10.9-67.3-16.1c-6.8-1.6-13.6-3.1-20.4-4.4
		c-3.1-0.6-5.5,1.6-5.9,4.2c-0.5,2.8,2.8,2.3,4.4,2.7c30.2,7.3,60.3,14.5,90.5,21.7c8.7,2.1,8.7,2.1,6.9-6.9
		c-0.3-1.3-0.4-2.6-0.7-3.9c-3.4-15.4-7-30.7-10.3-46.1c-3-13.6-5.8-27.3-8.8-40.9c-0.4-1.6-0.4-4.6-2.5-4.3
		c-2.3,0.3-4.3,2.5-4.8,5.1c-0.2,1.3,0.1,2.7,0.3,3.9c3,13.9,6.2,27.9,9.2,41.8C832.2,581.1,835.2,595,838.5,610.2z M375.5,517.8
		c0.1,2.3-1.5,2.8-2.8,3.5c-10.3,6.6-20.7,13.3-31.1,19.9c-10.8,6.9-21.6,13.7-32.4,20.5c-2,1.3-3.3,2.4-1.3,5.1
		c1.7,2.4,3,3.8,6,1.9c4.7-3.1,9.6-6,14.3-9c16.2-10.3,32.5-20.6,48.7-31c3.2-2.1,5-1.6,7,1.8c5.5,9.3,11.4,18.2,17,27.4
		c1.6,2.6,2.8,3.4,5.9,1.6c3.2-2,3.1-3.9,1.2-6.5c-3.3-4.4-5.9-9.2-8.7-13.9c-4.7-7.8-9.8-15.4-14.7-23.1
		c-7.1-11.2-14.2-22.4-21.3-33.6c-1.4-2.3-3.1-3-5.3-1.2c-1.8,1.5-4.4,2.4-2.1,5.8c6.1,9.1,11.7,18.5,17.5,27.7
		C374.2,515.8,374.9,516.9,375.5,517.8z M328.7,397.1c7.5-1,8.7-2,8.7-9.3c0-15.1-5.6-27.5-17.5-37.4c-16.7-13.9-39.1-13.4-55.8-1.4
		c-14.4,10.4-20,25.4-18.3,42.8c0.8,8.8,4.4,17,10.7,23.7c2.4,2.6,5.6,1.8,7.7,0.2c2.7-2.1-0.8-3.3-1.8-4.4
		c-15-16.1-11.8-43.5,6.2-56.2c17.7-12.5,40.9-8,52.8,6.9C329.8,372.4,330.8,384.1,328.7,397.1z M428,628.4c0.7,1.8-0.3,3.1-1.2,4.5
		c-6.8,11.2-13.4,22.5-20.3,33.7c-2,3.2-0.9,4.4,1.8,6.2c2.8,1.7,3.9,1.5,5.6-1.4c6.3-10.9,13.1-21.6,19.5-32.4
		c1.6-2.7,3.6-4.4,6.7-5.4c15.2-4.7,30.4-9.6,45.5-14.5c1.6-0.5,4.3-0.6,4.4-2.5c0.1-2.4-2.9-2.8-4.5-4.1c-1.4-1.1-2.9-0.1-4.2,0.3
		c-13.7,4.4-27.5,8.7-41.1,13.3c-3.2,1.1-4.1,0.2-4.6-2.9c-2.5-14.2-5.5-28.3-7.7-42.5c-0.6-3.6-2.8-4.5-5-6.1c-1-0.7-2.3-2-3.5-1.2
		c-1.3,0.8-0.4,2.4-0.2,3.7C422.1,594.2,425,611.3,428,628.4z M932.9,381.8c0-0.1,0-0.3,0-0.4c6.8,0,13.6,0.1,20.5,0
		c3.7,0,4.6-2.2,4.3-5.6c-0.2-3.9-2.9-3-5-2.9c-12.5,0.5-24.9,1.1-37.4,0.8c-2,0-3.9,0.2-5.6-1.4c-3.1-2.9-6.4-5.8-9.7-8.6
		c-10.1-8.6-20.3-17.1-30.4-25.7c-0.9-0.8-1.8-1.7-3.1-1c-1.1,0.6-0.7,1.7-0.8,2.7c-0.5,4.1,1.7,6.5,4.8,9
		c10.4,8.5,20.5,17.4,30.8,26c2.5,2.1,2.5,3.7,0,5.9c-9.2,8.1-18.3,16.3-27.4,24.6c-3.5,3.2-7.9,6-7.1,11.8c0.2,1.2-0.5,2.9,1.2,3.5
		c1.3,0.4,2.1-0.8,3-1.5c10.8-9.8,21.8-19.4,32.4-29.5c5.5-5.3,11.1-9.2,19.3-7.8C925.8,382.2,929.4,381.8,932.9,381.8z M353.1,445
		c0.1-3.7-4.1-6.6-7-5.3c-25.2,11.1-50.4,22.1-75.6,33.2c-2.3,1-4.8,1.6-3,5.3c1.5,3.1,3.1,3.9,6.1,2.2c1.9-1,4-1.4,6-2.3
		c23.7-10.4,47.4-20.8,71.1-31.2C351.9,446.3,353.1,446.1,353.1,445z M703.5,664.7c0.8,1.1-1.2,4.7,2.4,3.2
		c10.4-4.4,20.6-9.3,30.8-14c1.1-0.5,2.6-1.7,0.7-3c-2.8-2.1-5.5-4.3-9.5-2.3c-6.7,3.3-13.6,6.3-20.5,9.2
		C704.2,659.1,704,661.8,703.5,664.7z"/>
	<path class="st1" d="M551.3,513.7c-30,0-60,0-90,0c-6.4,0-6.5-0.2-6.5-6.4c0-5.5,0.2-11-0.1-16.5c-0.3-4.7,1.3-6.5,6.3-6.4
		c13.7,0.3,27.3,0.1,41,0.1c43.7,0,87.3,0,131,0c36.6,0,64.4-32.5,58.5-68.3c-4.5-27.2-29.6-48.5-57.3-48.4
		c-32.8,0.1-65.7,0.5-98.5-0.1c-38.2-0.7-70.8-27.5-79.3-64.1c-10.5-45.1,15.6-88.7,60.4-100.7c5.9-1.6,12-3.4,18.4-1.5
		c2.8,0.8,5.7-0.9,8.7-0.9c55,0.1,110,0.1,165,0.1c6.7,0,6.7,0,6.8,6.6c0,5.2,0,10.3,0,15.5c0,6.3-0.2,6.5-6.4,6.5
		c-56.5,0-113,0.6-169.5-0.2c-32.9-0.5-62.5,29.4-55.4,65.9c4.7,24.3,27.3,43.3,53.8,43.6c28.8,0.3,57.7,0.8,86.5-0.2
		c19-0.7,36.9,1.5,53.4,10.9c24.4,13.8,39.7,34.6,43.9,62.4c7.3,48.4-21.3,89.8-68.9,100.9c-4.5,1-9.2,1.2-13.9,1.3
		C609.9,513.7,580.6,513.7,551.3,513.7z"/>
	<path class="st1" d="M345.5,63.7c12.5,6.2,25,12.4,37.4,18.8c3.1,1.6,5.1,1.6,7.7-1.1c8.4-8.8,17-17.3,25.7-25.8
		c0.9-0.9,1.1-3.5,3-2.4c1.4,0.8,0.3,2.7,0.1,4.1c-1.3,9.1-2.7,18.1-4.1,27.2c-0.6,4.3-2.5,9-1.2,12.7c1.2,3.6,6.7,4.3,10.3,6.3
		c9.5,5.1,19.2,9.8,29.7,15.2c-7.8,2.6-15.3,2.5-22.5,4.1c-5.7,1.3-11.4,2.4-17.2,2.8c-4.7,0.4-6.1,2.7-6.7,6.8
		c-1.5,10.9-3.2,21.7-4.9,32.6c-0.3,2.1-0.4,4.3-1.8,6.5c-6.4-12.1-12.7-24-18.8-36c-1.6-3.2-3.3-4.2-6.9-3.5
		c-11.6,2.2-23.3,3.9-35,5.8c-1.6,0.2-3.1,0.3-6,0.6c7.5-7.6,14.1-14.3,20.7-21.1c2.9-3,5.6-6.1,8.7-8.9c2.5-2.2,2.4-4.1,1-6.9
		C358.2,88.9,351.9,76.2,345.5,63.7L345.5,63.7z"/>
	<path class="st1" d="M462.9,38.3c5.4-1.5,10.7-3.1,16.1-4.5c7.7-2.1,15.4-4.2,23.1-6c2.9-0.7,3.6-2.1,3.7-4.8
		c0.7-13.6,1.5-27.2,2.3-40.9c1.7-0.4,2,1.2,2.6,2.3c6.6,10.2,13.4,20.2,19.7,30.6c2.2,3.6,4.3,4.2,8,3.1
		c11.2-3.2,22.4-6.1,33.7-9.1c1.2-0.3,2.4-1.2,4.3,0.1c-3,3.8-5.9,7.5-8.8,11.2c-5.3,6.6-10.4,13.4-16.1,19.7
		c-2.6,2.9-1.7,4.6,0,7.2c7.3,11,14.4,22.1,21.9,33.7c-4.2-0.3-7.5-2.2-10.9-3.5c-9.5-3.4-19-7.1-28.4-10.9c-2.4-1-3.6-0.7-5.3,1.5
		c-7.5,9.6-15.2,18.9-22.8,28.4c-0.9,1.1-1.6,2.5-3.8,3.3c0.4-9.1,0.9-18,1.3-26.9c0.2-4.5,0.1-9,0.7-13.5c0.5-3.7-1.2-4.8-4.2-5.9
		c-12.3-4.6-24.5-9.4-36.7-14.1C463,38.9,462.9,38.6,462.9,38.3z"/>
	<path class="st1" d="M731.4,40.7c-9,3-17.9,6.1-26.9,9.1c-14.6,4.8-14.7,4.8-14.7,20.1c0,8.2,0.1,16.3,0.1,24.5
		c0,1.6,0.5,3.3-0.8,5C681,88.7,672.9,78.2,665,67.6c-1.8-2.5-3.1-3.2-6.5-2c-12.4,4.5-25,8.4-39,13c4-5.9,7.2-10.7,10.5-15.4
		c4.4-6.3,8.7-12.6,13.3-18.7c2.3-3.1,0.7-5-1.1-7.4c-7.5-9.9-14.9-19.9-22.4-29.9c-0.4-0.5-0.5-1.2-1-2.5c5.2,1.6,9.9,3.1,14.6,4.5
		c8.1,2.5,16.3,4.7,24.3,7.4c3.3,1.1,4.9,0.3,6.8-2.4c6.8-10,14-19.8,21-29.7c0.6-0.9,1-2.1,3.3-2.6c0,10.1,0,20,0,29.8
		c0,1.2,0.2,2.3,0,3.5c-2.2,11.2,5.6,13.4,13.8,15.7c9.6,2.6,19,5.8,28.5,8.7C731.3,39.8,731.4,40.2,731.4,40.7z"/>
	<path class="st1" d="M763.1,49.4c10.6,8,21.3,15.8,31.7,24c2.9,2.3,4.7,2.2,7.7,0.1c10.3-7.5,20.9-14.7,31.8-22.3
		c0.4,4.8-1.9,8.2-3,11.8c-2.8,8.7-5.7,17.4-9,25.9c-1.5,3.7-0.2,5.3,2.5,7.3c9.4,6.9,18.7,13.9,27.9,20.9c0.9,0.7,2.3,1.3,2.5,2.9
		c-10.6,0-21.2,0.4-31.7-0.1c-11.5-0.5-11.5-0.9-15.3,9.8c-3.1,8.8-6,17.7-9.1,26.5c-0.6,1.6-0.5,3.6-2.7,5
		c-3.7-12-7.6-23.8-10.8-35.7c-1.4-5-3.5-6.8-8.8-6.6c-10.8,0.3-21.6-0.1-32.5-0.3c-1.4,0-2.8-0.3-5.5-0.6
		c9.5-6.7,18-12.7,26.5-18.6c9.9-6.8,10-6.8,6.5-18.4c-3.1-10.3-6.3-20.5-9.5-30.8C762.5,50,762.8,49.7,763.1,49.4z"/>
	<path class="st0" d="M707.3,152c-4.3-1.7-8.5-3.3-12.7-4.9c-8.1-3.1-16.2-6.2-24.1-9.5c-2.2-0.9-3.2-0.8-4.1,1.4
		c-2.2,5.7-4.4,11.5-6.8,17.1c-1,2.4,0.1,3.1,2.2,3.9c11.5,4.4,22.9,9,34.3,13.5c2,0.8,4,1.2,2.5,4.5c-1.4,3.2-3,2-5,1.2
		c-12.5-5-25-10-37.6-14.7c-3.9-1.5-5.3-2.8-3.4-7.3c7.3-17.7,14.2-35.5,21.1-53.3c1-2.6,1.9-3.3,4.6-2.2
		c13.4,5.4,26.8,10.7,40.3,15.9c2.4,0.9,3.1,1.7,2.1,4.2c-1.1,2.9-2.7,2.3-4.7,1.5c-11.1-4.4-22.3-8.7-33.3-13.4
		c-3.6-1.5-4.9-0.7-6,2.8c-1.5,4.7-3.3,9.5-5.5,13.9c-1.8,3.6-0.5,4.8,2.7,6c11.4,4.2,22.6,8.8,33.9,13.2c1.2,0.5,3.4,0.7,2.1,2.9
		C709.3,149.9,709.6,152.1,707.3,152z"/>
	<path class="st0" d="M427.3,153.4c1.5,1.3,2.2,1.9,3,2.6c5.7,5.1,11.5,10.1,17,15.4c2.3,2.2,3.5,1.8,5.5-0.4
		c6.7-7.6,13.5-15.1,20.4-22.6c1.8-1.9,1.7-3-0.3-4.7c-5.9-5.1-11.5-10.6-17.4-15.7c-2-1.7-1.9-2.7-0.3-4.7c1.8-2.2,2.9-1.3,4.4,0.1
		c14.8,13.4,29.5,26.9,44.4,40.2c1.9,1.7,1.6,2.7,0.2,4.5c-1.6,1.9-2.7,1.7-4.4,0.1c-5.7-5.3-11.7-10.4-17.3-15.8
		c-2.1-2-3.2-1.8-5,0.3c-6.7,7.6-13.5,15.1-20.5,22.5c-1.9,2.1-2,3.2,0.2,5c5.9,5.1,11.6,10.5,17.5,15.7c1.7,1.5,2.2,2.5,0.4,4.3
		c-1.5,1.4-2.3,2.4-4.4,0.5c-14.7-13.5-29.5-26.9-44.3-40.3c-1-0.9-2.9-1.6-1.5-3.5C425.6,155.8,426.5,154.6,427.3,153.4z"/>
	<path class="st0" d="M542.2,99.4c18.4-1.4,32.5,16,32.4,30.3c-0.1,20.2-13.2,34.2-32.2,34.2c-18.5,0-32.2-13.7-32.8-31.8
		C508.9,115,524,98,542.2,99.4z M541.9,104.5c-14.8,0.1-26.9,12.1-27,27c-0.1,14.7,12.6,27.3,27.4,27.2c14.5-0.1,27-12.5,27-27.1
		C569.4,116.7,557,104.5,541.9,104.5z"/>
	<path class="st0" d="M608.4,95.6c9.8,0,19.6,0.1,29.4-0.1c2.4,0,3.6,0.3,3.6,3.2c0,3-1.5,3.1-3.7,3.1c-7.7-0.1-15.3,0-23-0.2
		c-2.9-0.1-3.5,0.8-3.5,3.6c-0.1,17.1-0.3,34.3-0.6,51.4c0,2.1,1.4,5.2-3.1,5c-4.1-0.1-2.9-2.9-2.9-4.9c0-16.6,0-33.3,0.4-49.9
		c0.1-4.6-1.4-5.5-5.5-5.3c-6.8,0.2-13.6,0-20.5,0c-2.4,0-4.6,0.3-4.5-3.4c0.1-3.4,2.1-3.1,4.3-3.1c9.8,0,19.6,0,29.4,0
		C608.4,95.2,608.4,95.4,608.4,95.6z"/>
	<path class="st0" d="M752,129.9c1.3,1,2.6,1.7,3.7,2.8c1.4,1.4-0.2,2.4-0.9,3.4c-9.9,14.2-19.6,28.5-29.7,42.5
		c-2.3,3.2-2.5,4.8,1.1,7.1c9.9,6.4,19.4,13.4,29.2,20.1c2,1.3,3.3,2.2,1.4,5c-2,3-3.4,1.3-5.1,0.1c-11.7-8.2-23.4-16.5-35.2-24.5
		c-2.5-1.7-2.2-3-0.7-5.1c11.4-16.2,22.6-32.5,34-48.7C750.4,131.6,751.2,130.8,752,129.9z"/>
	<path class="st2" d="M613.8,643.7c-7.6,0.5-15.3-0.1-22.9,0.8c-9.4,1.1-15.1,7.6-14.3,17.3c0.6,7.8,8.6,14.2,16.9,13.4
		c10.3-0.9,20.6-0.5,30.9-0.4c8.8,0.1,18.6,8.5,21.1,17.4c3.2,11.4-0.2,22.5-8.8,28.5c-4.9,3.4-10.2,5.1-16.3,5.1
		c-15.5,0-30.9,0.5-46.4,0.9c-2.9,0.1-5.4,0.1-5.3-3.9c0-3.9,1.7-5.2,5.5-5.1c10.5,0.2,21,0.1,31.5-0.1c6-0.1,12-0.4,17.9-0.9
		c7-0.5,13.9-8.7,13.9-16c0-7.8-7.2-16.6-14.3-16.8c-9.1-0.2-18.3-0.1-27.4,0.4c-12.2,0.6-24.6-4.3-27.8-20.2
		c-2.5-12.1,5.1-24.1,17.4-27.7c1.1-0.3,2.3-0.6,3.4-0.6c16.8-0.4,33.6-0.7,50.4-1.1c2.9-0.1,4.7,0.3,4.6,4c0,3.4-1.4,4-4.4,4.3
		C630.7,643.6,622.2,643.9,613.8,643.7z"/>
	<path class="st2" d="M845.5,482.1c-2.6-23.4,21.5-46.7,48.3-44.7c19.9,1.5,43.2,20.5,41.9,47.6c-1,21-20.4,44.5-48.1,43
		C866.6,527,843,507,845.5,482.1z M927.6,482.8c1.1-19.3-15.9-38-37.5-37.8c-21.4,0.2-37.3,16.1-37.6,37.8
		c-0.2,19.2,14.7,37.5,38.4,37.5C911.1,520.4,928,503.3,927.6,482.8z"/>
	<path class="st2" d="M684.6,711.8c1.3-9.7,2.7-19.2,3.9-28.7c2-15.1,4-30.2,6-45.3c1-7.9,2.1-15.8,3-23.6c0.6-4.6,3.2-3.7,5.5-1.9
		c7.5,5.8,15.8,10.4,23.7,15.6c17.7,11.8,35.4,23.4,53.2,35.1c1.2,0.8,2.8,1.4,3.6,2.6c1,1.5,5.1,1.7,2.9,4.5
		c-1.7,2.1-4.4,3.6-7.5,1.6c-8.7-5.8-17.5-11.5-26.2-17.2c-14.8-9.8-29.6-19.5-44.4-29.3c-2.9-1.9-4.3-1.3-4.8,2.4
		c-3.2,24.6-6.6,49.2-9.9,73.9c-0.4,2.8-0.2,5.6-0.8,8.4c-0.6,2.4-1.6,3.8-3.7,4.8C685.1,716.4,684.4,715.9,684.6,711.8z"/>
	<path class="st2" d="M838.5,610.2c-3.3-15.2-6.3-29.2-9.3-43.1c-3.1-13.9-6.2-27.9-9.2-41.8c-0.3-1.3-0.6-2.7-0.3-3.9
		c0.5-2.6,2.4-4.8,4.8-5.1c2.1-0.3,2.1,2.7,2.5,4.3c3,13.6,5.8,27.3,8.8,40.9c3.4,15.4,6.9,30.8,10.3,46.1c0.3,1.3,0.5,2.6,0.7,3.9
		c1.8,8.9,1.8,8.9-6.9,6.9c-30.2-7.2-60.4-14.4-90.5-21.7c-1.7-0.4-4.9,0.1-4.4-2.7c0.5-2.6,2.8-4.8,5.9-4.2
		c6.8,1.3,13.6,2.8,20.4,4.4C793.3,599.4,815.3,604.7,838.5,610.2z"/>
	<path class="st2" d="M375.5,517.8c-0.5-0.9-1.2-2-1.9-3.1c-5.8-9.3-11.5-18.6-17.5-27.7c-2.3-3.5,0.2-4.4,2.1-5.8
		c2.2-1.8,3.8-1.1,5.3,1.2c7,11.2,14.2,22.4,21.3,33.6c4.9,7.7,9.9,15.3,14.7,23.1c2.8,4.7,5.4,9.5,8.7,13.9c1.9,2.5,2,4.4-1.2,6.5
		c-3,1.9-4.2,1.1-5.9-1.6c-5.6-9.2-11.6-18.1-17-27.4c-2-3.4-3.8-3.9-7-1.8c-16.2,10.4-32.5,20.7-48.7,31c-4.8,3-9.6,5.9-14.3,9
		c-2.9,1.9-4.2,0.5-6-1.9c-2-2.7-0.7-3.8,1.3-5.1c10.8-6.8,21.6-13.6,32.4-20.5c10.4-6.6,20.7-13.2,31.1-19.9
		C373.9,520.5,375.5,520,375.5,517.8z"/>
	<path class="st2" d="M328.7,397.1c2.1-13,1.1-24.6-7.4-35.2c-11.9-14.8-35.2-19.3-52.8-6.9c-17.9,12.7-21.2,40.1-6.2,56.2
		c1,1.1,4.5,2.3,1.8,4.4c-2.1,1.7-5.3,2.4-7.7-0.2c-6.2-6.7-9.8-14.9-10.7-23.7c-1.6-17.4,4-32.4,18.3-42.8
		c16.7-12,39.1-12.5,55.8,1.4c11.9,9.8,17.5,22.2,17.5,37.4C337.4,395.1,336.2,396,328.7,397.1z"/>
	<path class="st2" d="M428,628.4c-3-17.1-5.9-34.3-8.9-51.4c-0.2-1.3-1.1-2.8,0.2-3.7c1.2-0.8,2.5,0.5,3.5,1.2
		c2.2,1.6,4.4,2.4,5,6.1c2.2,14.2,5.1,28.3,7.7,42.5c0.5,3,1.5,3.9,4.6,2.9c13.7-4.6,27.4-8.9,41.1-13.3c1.4-0.4,2.8-1.5,4.2-0.3
		c1.6,1.3,4.6,1.7,4.5,4.1c-0.1,1.9-2.8,2-4.4,2.5c-15.1,5-30.3,9.8-45.5,14.5c-3.1,1-5.1,2.6-6.7,5.4
		c-6.5,10.8-13.2,21.5-19.5,32.4c-1.7,2.9-2.8,3.1-5.6,1.4c-2.7-1.7-3.8-3-1.8-6.2c6.9-11.1,13.6-22.4,20.3-33.7
		C427.6,631.5,428.7,630.2,428,628.4z"/>
	<path class="st2" d="M932.9,381.8c-3.5,0-7.1,0.5-10.5-0.1c-8.2-1.3-13.7,2.6-19.3,7.8c-10.6,10.1-21.6,19.7-32.4,29.5
		c-0.9,0.8-1.7,1.9-3,1.5c-1.7-0.6-1-2.2-1.2-3.5c-0.8-5.8,3.6-8.6,7.1-11.8c9.1-8.3,18.2-16.5,27.4-24.6c2.5-2.2,2.5-3.8,0-5.9
		c-10.3-8.7-20.4-17.5-30.8-26c-3-2.5-5.2-4.9-4.8-9c0.1-1-0.3-2.1,0.8-2.7c1.3-0.7,2.2,0.2,3.1,1c10.1,8.6,20.3,17.1,30.4,25.7
		c3.3,2.8,6.6,5.6,9.7,8.6c1.7,1.6,3.7,1.4,5.6,1.4c12.5,0.2,24.9-0.3,37.4-0.8c2.1-0.1,4.8-0.9,5,2.9c0.2,3.4-0.7,5.5-4.3,5.6
		c-6.8,0.1-13.6,0-20.5,0C932.9,381.5,932.9,381.6,932.9,381.8z"/>
	<path class="st2" d="M353.1,445c-0.1,1.1-1.3,1.3-2.4,1.7c-23.7,10.4-47.4,20.8-71.1,31.2c-2,0.9-4.2,1.2-6,2.3
		c-3,1.7-4.6,0.9-6.1-2.2c-1.8-3.7,0.7-4.3,3-5.3c25.2-11.1,50.4-22.1,75.6-33.2C349,438.4,353.2,441.3,353.1,445z"/>
	<path class="st2" d="M703.5,664.7c0.4-2.9,0.7-5.6,3.9-7c6.9-2.9,13.7-5.9,20.5-9.2c4-2,6.7,0.2,9.5,2.3c1.8,1.4,0.3,2.5-0.7,3
		c-10.2,4.8-20.4,9.6-30.8,14C702.3,669.4,704.3,665.8,703.5,664.7z"/>
	<path class="st1" d="M927.6,482.8c0.4,20.4-16.5,37.6-36.7,37.5c-23.7,0-38.6-18.3-38.4-37.5c0.3-21.7,16.2-37.6,37.6-37.8
		C911.7,444.8,928.7,463.5,927.6,482.8z"/>
</g>
</svg>
